<?xml version="1.0" encoding="UTF-8"?>
<svg width="190px" height="57px" viewBox="0 0 190 57" version="1.1" xmlns="http://www.w3.org/2000/svg" xmlns:xlink="http://www.w3.org/1999/xlink">
    <!-- Generator: sketchtool 40.1 (33804) - http://www.bohemiancoding.com/sketch -->
    <title>756CE32F-7718-4DB2-BC8C-EB90898C7A24</title>
    <desc>Created with sketchtool.</desc>
    <defs></defs>
    <g id="provider-page" stroke="none" stroke-width="1" fill="none" fill-rule="evenodd">
        <g id="Provider-page-v1.7.2" transform="translate(-30.000000, -17.000000)">
            <g id="Logo" transform="translate(30.000000, 19.000000)">
                <path d="M10.9570312,38 L6.41601562,38 L6.41601562,20.3632812 L0.600585938,20.3632812 L0.600585938,16.5839844 L16.7724609,16.5839844 L16.7724609,20.3632812 L10.9570312,20.3632812 L10.9570312,38 Z M38.90625,27.2626953 C38.90625,30.8076349 38.0273525,33.532217 36.2695312,35.4365234 C34.51171,37.3408298 31.9922039,38.2929688 28.7109375,38.2929688 C25.4296711,38.2929688 22.910165,37.3408298 21.1523438,35.4365234 C19.3945225,33.532217 18.515625,30.7978694 18.515625,27.2333984 C18.515625,23.6689275 19.3969638,20.9467867 21.159668,19.0668945 C22.9223721,17.1870023 25.4492023,16.2470703 28.7402344,16.2470703 C32.0312665,16.2470703 34.5483311,17.1943265 36.2915039,19.0888672 C38.0346767,20.9834079 38.90625,23.70799 38.90625,27.2626953 L38.90625,27.2626953 Z M23.2763672,27.2626953 C23.2763672,29.6552854 23.7304642,31.4570252 24.6386719,32.6679688 C25.5468795,33.8789123 26.9042878,34.484375 28.7109375,34.484375 C32.3340025,34.484375 34.1455078,32.0771725 34.1455078,27.2626953 C34.1455078,22.4384524 32.343768,20.0263672 28.7402344,20.0263672 C26.9335847,20.0263672 25.5712937,20.6342713 24.6533203,21.8500977 C23.735347,23.065924 23.2763672,24.8701052 23.2763672,27.2626953 L23.2763672,27.2626953 Z M47.8857422,26.6621094 L49.3798828,26.6621094 C50.7763742,26.6621094 51.8212856,26.3862332 52.5146484,25.8344727 C53.2080113,25.2827121 53.5546875,24.4794975 53.5546875,23.4248047 C53.5546875,22.3603462 53.2641631,21.5742213 52.6831055,21.0664062 C52.1020479,20.5585912 51.1914125,20.3046875 49.9511719,20.3046875 L47.8857422,20.3046875 L47.8857422,26.6621094 Z M58.1396484,23.2636719 C58.1396484,25.5683709 57.4194408,27.3310486 55.9790039,28.5517578 C54.538567,29.772467 52.4902477,30.3828125 49.8339844,30.3828125 L47.8857422,30.3828125 L47.8857422,38 L43.3447266,38 L43.3447266,16.5839844 L50.1855469,16.5839844 C52.7832161,16.5839844 54.758294,17.1430608 56.1108398,18.2612305 C57.4633857,19.3794001 58.1396484,21.0468639 58.1396484,23.2636719 L58.1396484,23.2636719 Z" id="TOP" stroke="#474A60" fill="#474A60"></path>
                <path d="M88.0345534,37.4 L83.5081862,37.4 L83.5081862,25.0074219 L83.5521316,22.9712891 L83.6253737,20.7447266 C82.8734169,21.4966834 82.3509611,21.9898426 82.0579909,22.2242187 L79.5970534,24.2017578 L77.4144362,21.4771484 L84.3138503,15.9839844 L88.0345534,15.9839844 L88.0345534,37.4 Z M108.820686,26.6919922 C108.820686,30.4322453 108.207899,33.2007723 106.982307,34.9976562 C105.756715,36.7945402 103.869527,37.6929687 101.320686,37.6929687 C98.8499708,37.6929687 96.9871964,36.7652437 95.7323073,34.9097656 C94.4774183,33.0542876 93.8499831,30.3150572 93.8499831,26.6919922 C93.8499831,22.9126764 94.4603286,20.1270597 95.6810378,18.3350586 C96.901747,16.5430574 98.7816111,15.6470703 101.320686,15.6470703 C103.791402,15.6470703 105.659059,16.5845609 106.923714,18.4595703 C108.188368,20.3345797 108.820686,23.0786929 108.820686,26.6919922 L108.820686,26.6919922 Z M98.3470534,26.6919922 C98.3470534,29.3189584 98.5741019,31.2012638 99.0282058,32.3389648 C99.4823096,33.4766658 100.246462,34.0455078 101.320686,34.0455078 C102.375379,34.0455078 103.13709,33.4693417 103.605842,32.3169922 C104.074595,31.1646427 104.308967,29.2896614 104.308967,26.6919922 C104.308967,24.0650259 104.072153,22.1778378 103.598518,21.0303711 C103.124883,19.8829044 102.365613,19.3091797 101.320686,19.3091797 C100.256228,19.3091797 99.4945167,19.8829044 99.03553,21.0303711 C98.5765433,22.1778378 98.3470534,24.0650259 98.3470534,26.6919922 L98.3470534,26.6919922 Z" id="10" stroke="#474A60" fill="#474A60"></path>
                <path d="M144.043797,16.9839844 L148.628758,16.9839844 L141.348484,38.4 L136.397312,38.4 L129.131687,16.9839844 L133.716648,16.9839844 L137.744968,29.728125 C137.969579,30.4800819 138.20151,31.356538 138.440769,32.3575195 C138.680028,33.3585011 138.828953,34.0542949 138.887547,34.4449219 C138.994969,33.5464799 139.361176,31.97423 139.986179,29.728125 L144.043797,16.9839844 Z M155.865086,27.0621094 L157.359226,27.0621094 C158.755718,27.0621094 159.800629,26.7862332 160.493992,26.2344727 C161.187355,25.6827121 161.534031,24.8794975 161.534031,23.8248047 C161.534031,22.7603462 161.243507,21.9742213 160.662449,21.4664062 C160.081391,20.9585912 159.170756,20.7046875 157.930515,20.7046875 L155.865086,20.7046875 L155.865086,27.0621094 Z M166.118992,23.6636719 C166.118992,25.9683709 165.398784,27.7310486 163.958347,28.9517578 C162.517911,30.172467 160.469591,30.7828125 157.813328,30.7828125 L155.865086,30.7828125 L155.865086,38.4 L151.32407,38.4 L151.32407,16.9839844 L158.16489,16.9839844 C160.76256,16.9839844 162.737638,17.5430608 164.090183,18.6612305 C165.442729,19.7794001 166.118992,21.4468639 166.118992,23.6636719 L166.118992,23.6636719 Z M189.160984,38.4 L183.3895,38.4 L174.073093,22.1988281 L173.941258,22.1988281 C174.126805,25.0601706 174.219578,27.1011658 174.219578,28.321875 L174.219578,38.4 L170.161961,38.4 L170.161961,16.9839844 L175.8895,16.9839844 L185.191258,33.0240234 L185.293797,33.0240234 C185.147312,30.2408064 185.07407,28.2730526 185.07407,27.1207031 L185.07407,16.9839844 L189.160984,16.9839844 L189.160984,38.4 Z" id="VPN" stroke="#474A60" fill="#474A60"></path>
                <polyline id="green-1" stroke="#50E3C2" stroke-width="4" stroke-linecap="square" points="67 53 67 0 67 0"></polyline>
                <polyline id="red-1" stroke="#E36A5E" stroke-width="4" stroke-linecap="square" points="67 53 67 53 120 53"></polyline>
                <path d="M120,0 L120,53" id="yellow-1" stroke="#FFDF00" stroke-width="4" stroke-linecap="square"></path>
                <path d="M120,0 L67,0" id="blue-1" stroke="#19B4E4" stroke-width="4" stroke-linecap="square"></path>
                <polyline id="green-1-copy" stroke="#50E3C2" stroke-width="4" stroke-linecap="square" points="67 33 67 0 67 0"></polyline>
            </g>
        </g>
    </g>
</svg>